<svg
    width="24"
    height="24"
    viewBox="0 0 24 24"
    fill="none"
    xmlns="http://www.w3.org/2000/svg"
>
    <path
        d="M22.6427 23.8498C22.8358 24.0471 23.1524 24.0505 23.3497 23.8574C23.5471 23.6642 23.5505 23.3477 23.3573 23.1503L23 23.5001L22.6427 23.8498ZM17 17.3696L16.6427 17.7194L22.6427 23.8498L23 23.5001L23.3573 23.1503L17.3573 17.0199L17 17.3696Z"
        fill="currentcolor"
    />
    <path
        d="M11 0.5C16.2366 0.5 20.5 4.84081 20.5 10.2178C20.4998 15.5946 16.2365 19.9346 11 19.9346C5.7635 19.9346 1.5002 15.5946 1.5 10.2178C1.5 4.84081 5.76338 0.5 11 0.5Z"
        stroke="currentcolor"
    />
</svg>
