<svg
  width="25"
  height="25"
  viewBox="0 0 25 25"
  fill="none"
  xmlns="http://www.w3.org/2000/svg"
>
  <path
    d="M16.0557 16.3083V3.30835H1.05569V16.3083H16.0557ZM16.0557 16.3083H23.0557V11.3083L20.0557 8.30835H16.0557V16.3083ZM8.05569 18.8083C8.05569 20.1891 6.93641 21.3083 5.55569 21.3083C4.17498 21.3083 3.05569 20.1891 3.05569 18.8083C3.05569 17.4276 4.17498 16.3083 5.55569 16.3083C6.93641 16.3083 8.05569 17.4276 8.05569 18.8083ZM21.0557 18.8083C21.0557 20.1891 19.9364 21.3083 18.5557 21.3083C17.175 21.3083 16.0557 20.1891 16.0557 18.8083C16.0557 17.4276 17.175 16.3083 18.5557 16.3083C19.9364 16.3083 21.0557 17.4276 21.0557 18.8083Z"
    stroke="currentColor"
    stroke-width="2"
    stroke-linecap="round"
    stroke-linejoin="round"
  />
</svg>
