<svg
    width="50"
    height="86"
    viewBox="0 0 50 86"
    fill="none"
    xmlns="http://www.w3.org/2000/svg"
>
    <path
        d="M14.5238 24.5062H24.8654C27.3809 24.5062 30.6988 24.5062 32.412 25.5542C34.2909 26.6805 35.766 28.7296 35.766 31.5504C35.766 34.6059 34.1718 36.9001 31.5321 37.9846V38.068C35.0466 38.7928 36.9617 41.4467 36.9617 44.9871C36.9617 49.2105 33.9648 53.2358 28.2971 53.2358H14.5238V24.5062ZM18.3178 36.8531H25.911C30.2226 36.8531 31.9824 35.2837 31.9824 32.2647C31.9824 28.2812 29.1874 27.7181 25.911 27.7181H18.3178V36.8531ZM18.3178 50.0083H27.8261C31.0973 50.0083 33.178 47.9956 33.178 44.862C33.178 41.1183 30.1812 40.0754 26.9876 40.0754H18.3178V50.0083Z"
        fill="currentcolor"
    ></path>
    <path
        d="M46.6667 38.8762C46.6667 50.9416 36.9565 60.7232 24.9741 60.7232C12.9969 60.7232 3.28675 50.9416 3.28675 38.8762C3.28675 26.8108 12.9969 17.0292 24.9741 17.0292C36.9565 17.0344 46.6667 26.816 46.6667 38.8762ZM24.9793 13.7026C11.1853 13.7026 0 24.9702 0 38.8658C0 52.7613 11.1853 64.029 24.9793 64.029C38.7785 64.029 49.9638 52.7613 49.9638 38.8658C49.9638 24.9702 38.7785 13.7026 24.9793 13.7026Z"
        fill="currentcolor"
    ></path>
    <path
        d="M49.8604 69.3421H0.00012207V72.6426H49.8604V69.3421Z"
        fill="currentcolor"
    ></path>
    <path
        d="M48.3024 65.7079C48.3646 65.7079 48.4215 65.7027 48.4784 65.7027C48.5302 65.6975 48.5819 65.687 48.6234 65.6714C48.6699 65.6505 48.701 65.6193 48.7269 65.5828C48.7528 65.541 48.7631 65.4889 48.7631 65.4211C48.7631 65.3638 48.7528 65.3116 48.7321 65.2803C48.7113 65.2438 48.6803 65.2178 48.6441 65.2021C48.6078 65.1813 48.5716 65.1708 48.5198 65.1604C48.4733 65.1552 48.4318 65.1552 48.3801 65.1552H48.0229V65.7131H48.3024V65.7079ZM48.4215 64.9258C48.6285 64.9258 48.7786 64.9675 48.8822 65.0509C48.9805 65.1343 49.0323 65.2595 49.0323 65.4315C49.0323 65.5932 48.9857 65.7027 48.9029 65.7809C48.8149 65.8539 48.7062 65.8956 48.5716 65.9112L49.0685 66.6829H48.7786L48.3024 65.9269H48.0178V66.6829H47.7434V64.931H48.4215V64.9258ZM47.2 66.3075C47.2569 66.4639 47.3449 66.6047 47.4588 66.7194C47.5675 66.8341 47.6969 66.9228 47.847 66.9906C47.9919 67.0531 48.1575 67.0844 48.3283 67.0844C48.5043 67.0844 48.6648 67.0531 48.8097 66.9906C48.9598 66.9228 49.0892 66.8341 49.1979 66.7194C49.3066 66.6047 49.3946 66.4691 49.4515 66.3075C49.5136 66.1511 49.5499 65.9842 49.5499 65.8017C49.5499 65.6193 49.5188 65.4524 49.4515 65.296C49.3894 65.1396 49.3014 65.004 49.1979 64.8893C49.084 64.7746 48.9546 64.6859 48.8097 64.6234C48.6648 64.5608 48.4991 64.5243 48.3283 64.5243C48.1575 64.5243 47.9919 64.5608 47.847 64.6234C47.6969 64.6911 47.5623 64.7798 47.4588 64.8893C47.3449 65.004 47.2621 65.1396 47.2 65.296C47.1378 65.4524 47.1068 65.614 47.1068 65.8017C47.1016 65.979 47.1327 66.1511 47.2 66.3075ZM46.9515 65.2073C47.0292 65.0248 47.1378 64.8736 47.2724 64.7381C47.407 64.6025 47.5675 64.5034 47.7486 64.4252C47.9298 64.347 48.1265 64.3105 48.3232 64.3105C48.5302 64.3105 48.7217 64.347 48.908 64.4252C49.084 64.5034 49.2445 64.6025 49.3739 64.7381C49.5085 64.8736 49.6223 65.0301 49.6948 65.2073C49.7776 65.3898 49.8138 65.588 49.8138 65.8017C49.8138 66.0155 49.7776 66.2137 49.6948 66.3962C49.6171 66.5839 49.5085 66.7403 49.3739 66.8758C49.2393 67.0166 49.084 67.1157 48.908 67.1939C48.7217 67.2669 48.5302 67.3034 48.3232 67.3034C48.1213 67.3034 47.9298 67.2669 47.7486 67.1939C47.5675 67.1157 47.407 67.0166 47.2724 66.8758C47.1378 66.7403 47.0292 66.5839 46.9515 66.3962C46.8687 66.2137 46.8376 66.0155 46.8376 65.8017C46.8325 65.588 46.8687 65.3898 46.9515 65.2073Z"
        fill="currentcolor"
    ></path>
    <path
        d="M6.17507 2.63833C6.05602 2.44541 5.9111 2.27855 5.73511 2.13777C5.55913 1.99178 5.35727 1.88228 5.1347 1.79886C4.91213 1.72065 4.67921 1.67893 4.43594 1.67893C3.99081 1.67893 3.61296 1.76757 3.29722 1.93964C2.98667 2.1117 2.73304 2.34634 2.54153 2.63833C2.35002 2.93031 2.20509 3.26402 2.1171 3.63943C2.02911 4.01484 1.98252 4.40069 1.98252 4.79696C1.98252 5.17759 2.02393 5.54779 2.1171 5.90756C2.20509 6.26733 2.34484 6.5906 2.54153 6.88259C2.73304 7.16936 2.98667 7.404 3.29722 7.57606C3.60778 7.74813 3.98563 7.83677 4.43594 7.83677C5.04153 7.83677 5.51772 7.64906 5.85416 7.27886C6.19578 6.90345 6.40281 6.41332 6.48045 5.80327H8.40074C8.34898 6.37161 8.21959 6.88259 8.00737 7.34143C7.79515 7.80027 7.52083 8.19133 7.17404 8.50939C6.82725 8.83266 6.42352 9.07772 5.96286 9.24978C5.50219 9.41664 4.98977 9.50528 4.43594 9.50528C3.74754 9.50528 3.12642 9.38535 2.57259 9.14029C2.01876 8.90044 1.55809 8.56674 1.17507 8.13918C0.797224 7.71684 0.507369 7.21629 0.305505 6.64274C0.103642 6.06919 0.00012207 5.45393 0.00012207 4.79174C0.00012207 4.11391 0.0984658 3.48301 0.305505 2.90424C0.507369 2.32548 0.797224 1.8145 1.17507 1.38695C1.55292 0.954177 2.01876 0.615261 2.57259 0.370199C3.12124 0.125138 3.74236 0 4.43594 0C4.93284 0 5.40385 0.0729971 5.84381 0.213777C6.28377 0.359772 6.68232 0.568336 7.02911 0.844682C7.3759 1.12103 7.66575 1.45994 7.8935 1.86664C8.12124 2.27334 8.26617 2.74261 8.32311 3.26402H6.40281C6.36658 3.0346 6.29412 2.82603 6.17507 2.63833Z"
        fill="currentcolor"
    ></path>
    <path
        d="M10.9836 7.71684C11.2527 7.97755 11.6409 8.11311 12.143 8.11311C12.5053 8.11311 12.8159 8.02447 13.0799 7.84198C13.3387 7.65949 13.4991 7.46657 13.5612 7.26322H15.1399C14.8863 8.05054 14.4981 8.61888 13.9753 8.9578C13.4525 9.29671 12.8211 9.46878 12.0809 9.46878C11.5685 9.46878 11.1026 9.38535 10.6937 9.2185C10.2796 9.05165 9.93286 8.81702 9.643 8.5146C9.35832 8.21218 9.13576 7.8472 8.98048 7.41964C8.8252 6.9973 8.74756 6.52803 8.74756 6.02227C8.74756 5.53214 8.8252 5.0733 8.98565 4.65096C9.14611 4.22862 9.37385 3.85842 9.66888 3.55079C9.96391 3.24316 10.3159 2.9981 10.7248 2.82082C11.1337 2.64354 11.584 2.5549 12.0809 2.5549C12.6347 2.5549 13.1213 2.6644 13.5353 2.87817C13.9494 3.09717 14.2859 3.38394 14.5498 3.74893C14.8138 4.11391 15.0053 4.53104 15.1244 4.99509C15.2434 5.45915 15.2848 5.94927 15.2486 6.46025H10.5384C10.5643 7.02859 10.7093 7.45614 10.9836 7.71684ZM13.0074 4.25991C12.79 4.02527 12.4639 3.90535 12.0291 3.90535C11.7445 3.90535 11.5064 3.95228 11.3148 4.05134C11.1233 4.15041 10.9732 4.27033 10.8594 4.41111C10.7455 4.55711 10.6678 4.70832 10.6213 4.86995C10.5747 5.03159 10.5488 5.17237 10.5384 5.30272H13.4577C13.3749 4.84388 13.2248 4.49454 13.0074 4.25991Z"
        fill="currentcolor"
    ></path>
    <path
        d="M17.7641 2.71654V3.93663H17.79C17.8728 3.73329 17.9867 3.54558 18.1316 3.3683C18.2766 3.19623 18.437 3.04503 18.6233 2.9251C18.8097 2.80518 19.0064 2.70611 19.2186 2.63833C19.4308 2.57054 19.6482 2.53926 19.8759 2.53926C19.995 2.53926 20.1244 2.56012 20.2693 2.60183V4.28076C20.1865 4.26512 20.083 4.24948 19.9639 4.23905C19.8449 4.22862 19.731 4.2182 19.6223 4.2182C19.2962 4.2182 19.0167 4.27555 18.789 4.38505C18.5612 4.49454 18.3801 4.64575 18.2403 4.83867C18.1006 5.03159 18.0022 5.25058 17.9453 5.50607C17.8884 5.76156 17.8573 6.03791 17.8573 6.33511V9.30193H16.0664V2.71654H17.7641Z"
        fill="currentcolor"
    ></path>
    <path
        d="M25.0623 2.71653V3.9262H23.7476V7.185C23.7476 7.49264 23.7993 7.69598 23.8977 7.79505C23.996 7.89412 24.2031 7.94626 24.5033 7.94626C24.6068 7.94626 24.7 7.94105 24.7931 7.93583C24.8863 7.9254 24.9743 7.91498 25.0571 7.89933V9.29671C24.907 9.32278 24.7362 9.33842 24.5499 9.34885C24.3635 9.35928 24.1824 9.36449 24.0064 9.36449C23.7269 9.36449 23.4629 9.34363 23.2196 9.30714C22.9712 9.27064 22.7538 9.19764 22.5623 9.08293C22.3708 8.97343 22.2258 8.81701 22.112 8.61366C22.0033 8.41031 21.9463 8.1444 21.9463 7.81069V3.93141H20.8594V2.72175H21.9463V0.750824H23.7372V2.72175H25.0623V2.71653Z"
        fill="currentcolor"
    ></path>
    <path
        d="M26.1078 1.69979V0.208557H27.8987V1.69979H26.1078ZM27.8987 2.71653V9.29149H26.1078V2.71653H27.8987Z"
        fill="currentcolor"
    ></path>
    <path
        d="M28.6129 3.9262V2.71653H29.6843V2.20555C29.6843 1.62157 29.8655 1.14188 30.2278 0.766464C30.5901 0.39105 31.1388 0.208557 31.8686 0.208557C32.0291 0.208557 32.1895 0.213772 32.35 0.229414C32.5104 0.239842 32.6657 0.255484 32.8158 0.260698V1.61115C32.6036 1.58508 32.3862 1.57465 32.1585 1.57465C31.9152 1.57465 31.7392 1.632 31.6357 1.74671C31.5322 1.86142 31.4804 2.05434 31.4804 2.32547V2.72175H32.7175V3.93141H31.4804V9.30192H29.6843V3.93141H28.6129V3.9262Z"
        fill="currentcolor"
    ></path>
    <path
        d="M33.9287 1.69979V0.208557H35.7196V1.69979H33.9287ZM35.7248 2.71653V9.29149H33.9287V2.71653H35.7248Z"
        fill="currentcolor"
    ></path>
    <path
        d="M38.5508 7.71685C38.8199 7.97756 39.2081 8.11312 39.7102 8.11312C40.0725 8.11312 40.3831 8.02448 40.6471 7.84199C40.9059 7.6595 41.0663 7.46657 41.1284 7.26322H42.7071C42.4535 8.05055 42.0653 8.61889 41.5477 8.9578C41.0249 9.29672 40.3934 9.46878 39.6533 9.46878C39.1409 9.46878 38.675 9.38536 38.2661 9.21851C37.852 9.05166 37.5052 8.81702 37.2154 8.51461C36.9307 8.21219 36.7081 7.8472 36.5529 7.41965C36.3976 6.99731 36.3199 6.52804 36.3199 6.02227C36.3199 5.53215 36.4028 5.07331 36.558 4.65097C36.7185 4.21299 36.9462 3.848 37.2413 3.54037C37.5363 3.23274 37.8883 2.98768 38.2972 2.8104C38.7061 2.63312 39.1564 2.54448 39.6533 2.54448C40.2071 2.54448 40.6937 2.65398 41.1077 2.86775C41.5218 3.08674 41.8582 3.37352 42.1222 3.73851C42.3862 4.10349 42.5777 4.52062 42.6968 4.98467C42.8158 5.44872 42.8572 5.93885 42.8262 6.44983H38.116C38.1367 7.02859 38.2816 7.45615 38.5508 7.71685ZM40.5798 4.25991C40.3676 4.02528 40.0363 3.90536 39.6015 3.90536C39.3168 3.90536 39.0787 3.95228 38.8872 4.05135C38.6957 4.15042 38.5456 4.27034 38.4317 4.41112C38.3179 4.55712 38.2402 4.70832 38.1936 4.86996C38.1471 5.0316 38.1212 5.17238 38.1108 5.30273H41.0249C40.9421 4.84389 40.792 4.49455 40.5798 4.25991Z"
        fill="currentcolor"
    ></path>
    <path
        d="M48.2661 8.45724C48.0539 8.8118 47.7796 9.0725 47.438 9.22893C47.0964 9.38535 46.7133 9.46356 46.2837 9.46356C45.7972 9.46356 45.3676 9.36971 44.9949 9.17679C44.6222 8.98387 44.3169 8.72837 44.0788 8.39989C43.8407 8.0714 43.6595 7.69599 43.5353 7.27365C43.4111 6.8513 43.3541 6.40811 43.3541 5.94927C43.3541 5.50607 43.4162 5.08373 43.5353 4.67182C43.6543 4.2599 43.8407 3.90013 44.0788 3.58207C44.3169 3.26923 44.6222 3.01374 44.9794 2.82603C45.3417 2.63311 45.761 2.53926 46.2423 2.53926C46.6305 2.53926 46.998 2.62268 47.3448 2.78953C47.6968 2.95638 47.9711 3.19623 48.173 3.51951H48.1988V0.213776H49.9897V9.29671H48.2868V8.45724H48.2661ZM48.1885 5.20365C48.1367 4.95338 48.0539 4.73439 47.9297 4.54147C47.8055 4.34854 47.6502 4.19734 47.4535 4.07741C47.262 3.95749 47.0135 3.90013 46.7237 3.90013C46.4338 3.90013 46.1802 3.95749 45.9783 4.07741C45.7765 4.19734 45.616 4.35376 45.4918 4.54668C45.3728 4.7396 45.2848 4.96381 45.2278 5.21408C45.1709 5.46436 45.145 5.72506 45.145 5.9962C45.145 6.25169 45.1761 6.50718 45.233 6.75745C45.2899 7.01294 45.3883 7.23715 45.5177 7.4405C45.6471 7.63863 45.8127 7.80027 46.0094 7.92541C46.2061 8.05054 46.4442 8.1079 46.7237 8.1079C47.0187 8.1079 47.262 8.05055 47.4639 7.93062C47.6605 7.8107 47.821 7.65427 47.94 7.45092C48.0591 7.25279 48.1419 7.02337 48.1937 6.77309C48.2454 6.5176 48.2713 6.2569 48.2713 5.98577C48.2661 5.71463 48.2403 5.45393 48.1885 5.20365Z"
        fill="currentcolor"
    ></path>
    <path
        d="M4.50828 79.8046C4.42029 79.1685 3.8147 78.6836 3.12112 78.6836C1.86853 78.6836 1.39751 79.7577 1.39751 80.8787C1.39751 81.9424 1.86853 83.0165 3.12112 83.0165C3.97515 83.0165 4.45652 82.4273 4.56004 81.5826H5.91615C5.77122 83.1781 4.67909 84.2001 3.12112 84.2001C1.15424 84.2001 0 82.7193 0 80.8787C0 78.9808 1.15424 77.5 3.12112 77.5C4.51863 77.5 5.68841 78.3238 5.85921 79.8046H4.50828Z"
        fill="currentcolor"
    ></path>
    <path
        d="M8.83024 79.2936C10.2795 79.2936 11.2112 80.2582 11.2112 81.739C11.2112 83.2094 10.2795 84.174 8.83024 84.174C7.39132 84.174 6.45447 83.2042 6.45447 81.739C6.45447 80.2635 7.39132 79.2936 8.83024 79.2936ZM8.83024 83.2198C9.69463 83.2198 9.94826 82.4742 9.94826 81.7443C9.94826 80.9986 9.68946 80.2582 8.83024 80.2582C7.97621 80.2582 7.71741 81.0039 7.71741 81.7443C7.71741 82.4742 7.97621 83.2198 8.83024 83.2198Z"
        fill="currentcolor"
    ></path>
    <path
        d="M11.9928 79.4136H13.1936V80.2739H13.2143C13.4421 79.6899 14.0684 79.2884 14.6843 79.2884C14.7723 79.2884 14.881 79.3041 14.9586 79.3301V80.5137C14.8396 80.4877 14.6533 80.472 14.5032 80.472C13.5767 80.472 13.2557 81.1446 13.2557 81.958V84.0437H11.9928V79.4136Z"
        fill="currentcolor"
    ></path>
    <path
        d="M15.4504 79.4188H16.6512V80.008H16.6667C16.9669 79.5178 17.4638 79.2936 18.0332 79.2936C19.4773 79.2936 20.1243 80.4668 20.1243 81.7808C20.1243 83.0165 19.4514 84.174 18.1056 84.174C17.557 84.174 17.029 83.9342 16.7288 83.4753H16.7081V85.6809H15.4452V79.4188H15.4504ZM18.8613 81.7495C18.8613 81.0143 18.5663 80.253 17.7589 80.253C16.9307 80.253 16.6667 80.9986 16.6667 81.7495C16.6667 82.5003 16.9514 83.2198 17.7692 83.2198C18.5974 83.2198 18.8613 82.5003 18.8613 81.7495Z"
        fill="currentcolor"
    ></path>
    <path
        d="M22.8934 79.2936C24.3427 79.2936 25.2796 80.2582 25.2796 81.739C25.2796 83.2094 24.3427 84.174 22.8934 84.174C21.4545 84.174 20.5228 83.2042 20.5228 81.739C20.5228 80.2635 21.4545 79.2936 22.8934 79.2936ZM22.8934 83.2198C23.7578 83.2198 24.0166 82.4742 24.0166 81.7443C24.0166 80.9986 23.7578 80.2582 22.8934 80.2582C22.0394 80.2582 21.7806 81.0039 21.7806 81.7443C21.7858 82.4742 22.0446 83.2198 22.8934 83.2198Z"
        fill="currentcolor"
    ></path>
    <path
        d="M26.0611 79.4136H27.2619V80.2739H27.2826C27.5104 79.6899 28.1367 79.2884 28.7474 79.2884C28.8354 79.2884 28.9441 79.3041 29.0217 79.3301V80.5137C28.9079 80.4877 28.7215 80.472 28.5663 80.472C27.6398 80.472 27.3188 81.1446 27.3188 81.958V84.0437H26.0559V79.4136H26.0611Z"
        fill="currentcolor"
    ></path>
    <path
        d="M29.3944 80.8422C29.4669 79.6482 30.5228 79.2936 31.558 79.2936C32.4741 79.2936 33.5766 79.497 33.5766 80.6076V83.0165C33.5766 83.4388 33.618 83.856 33.737 84.0489H32.4534C32.412 83.9029 32.3706 83.7517 32.3654 83.6005C31.9669 84.0228 31.382 84.174 30.8178 84.174C29.9482 84.174 29.2546 83.736 29.2546 82.7871C29.2546 81.739 30.0362 81.4888 30.8178 81.3793C31.5942 81.2646 32.3136 81.2906 32.3136 80.7692C32.3136 80.2217 31.9358 80.1435 31.4958 80.1435C31.0145 80.1435 30.7039 80.3417 30.6573 80.8422H29.3944ZM32.3085 81.786C32.0911 81.9737 31.6511 81.9841 31.2577 82.0571C30.8644 82.1353 30.5124 82.2709 30.5124 82.7401C30.5124 83.2146 30.8747 83.3293 31.2888 83.3293C32.2722 83.3293 32.3136 82.542 32.3136 82.2657V81.786H32.3085Z"
        fill="currentcolor"
    ></path>
    <path
        d="M36.1232 79.4188H37.0497V80.2687H36.1232V82.5629C36.1232 82.9956 36.2319 83.0999 36.6563 83.0999C36.7909 83.0999 36.9151 83.0895 37.0497 83.0634V84.0593C36.8375 84.0958 36.558 84.1062 36.3096 84.1062C35.5383 84.1062 34.8603 83.9237 34.8603 83.0061V80.2739H34.0942V79.424H34.8603V78.037H36.1232V79.4188Z"
        fill="currentcolor"
    ></path>
    <path
        d="M39.265 78.7045H38.0021V77.6564H39.265V78.7045ZM38.0021 79.4188H39.265V84.0489H38.0021V79.4188Z"
        fill="currentcolor"
    ></path>
    <path
        d="M42.4845 79.2936C43.9338 79.2936 44.8706 80.2582 44.8706 81.739C44.8706 83.2094 43.9338 84.174 42.4845 84.174C41.0456 84.174 40.1139 83.2042 40.1139 81.739C40.1139 80.2635 41.0456 79.2936 42.4845 79.2936ZM42.4845 83.2198C43.3489 83.2198 43.6077 82.4742 43.6077 81.7443C43.6077 80.9986 43.3489 80.2582 42.4845 80.2582C41.6305 80.2582 41.3717 81.0039 41.3717 81.7443C41.3717 82.4742 41.6305 83.2198 42.4845 83.2198Z"
        fill="currentcolor"
    ></path>
    <path
        d="M45.6832 79.4188H46.8841V80.0653H46.9099C47.2308 79.5439 47.7795 79.2936 48.3178 79.2936C49.6584 79.2936 50 80.0549 50 81.202V84.0489H48.7371V81.4314C48.7371 80.6702 48.5145 80.2947 47.9296 80.2947C47.2412 80.2947 46.9513 80.6806 46.9513 81.6243V84.0541H45.6884V79.4188H45.6832Z"
        fill="currentcolor"
    ></path>
</svg>