<svg
    width="24"
    height="24"
    viewBox="0 0 24 24"
    fill="none"
    xmlns="http://www.w3.org/2000/svg"
>
    <path
        fill-rule="evenodd"
        clip-rule="evenodd"
        d="M4 10C4.55228 10 5 10.4477 5 11V19C5 19.2652 5.10536 19.5196 5.29289 19.7071C5.48043 19.8946 5.73478 20 6 20H18C18.2652 20 18.5196 19.8946 18.7071 19.7071C18.8946 19.5196 19 19.2652 19 19V11C19 10.4477 19.4477 10 20 10C20.5523 10 21 10.4477 21 11V19C21 19.7957 20.6839 20.5587 20.1213 21.1213C19.5587 21.6839 18.7957 22 18 22H6C5.20435 22 4.44129 21.6839 3.87868 21.1213C3.31607 20.5587 3 19.7956 3 19V11C3 10.4477 3.44772 10 4 10Z"
        fill="currentcolor"
    />
    <path
        fill-rule="evenodd"
        clip-rule="evenodd"
        d="M11.2929 2.29289C11.6834 1.90237 12.3166 1.90237 12.7071 2.29289L16.7071 6.29289C17.0976 6.68342 17.0976 7.31658 16.7071 7.70711C16.3166 8.09763 15.6834 8.09763 15.2929 7.70711L12 4.41421L8.70711 7.70711C8.31658 8.09763 7.68342 8.09763 7.29289 7.70711C6.90237 7.31658 6.90237 6.68342 7.29289 6.29289L11.2929 2.29289Z"
        fill="currentcolor"
    />
    <path
        fill-rule="evenodd"
        clip-rule="evenodd"
        d="M12 2C12.5523 2 13 2.44772 13 3V16C13 16.5523 12.5523 17 12 17C11.4477 17 11 16.5523 11 16V3C11 2.44772 11.4477 2 12 2Z"
        fill="currentcolor"
    />
</svg>
