<svg
  width="24"
  height="24"
  viewBox="0 0 24 24"
  fill="none"
  xmlns="http://www.w3.org/2000/svg"
>
  <path
    d="M3.00659 6.86682H5.00659M5.00659 6.86682H21.0066M5.00659
  6.86682V20.8668C5.00659 21.3973 5.21731 21.906 5.59238 22.281C5.96745 22.6561
  6.47616 22.8668 7.00659 22.8668H17.0066C17.537 22.8668 18.0457 22.6561 18.4208
  22.281C18.7959 21.906 19.0066 21.3973 19.0066 20.8668V6.86682M8.00659
  6.86682V4.86682C8.00659 4.33639 8.21731 3.82768 8.59238 3.45261C8.96745
  3.07753 9.47616 2.86682 10.0066 2.86682H14.0066C14.537 2.86682 15.0457 3.07753
  15.4208 3.45261C15.7959 3.82768 16.0066 4.33639 16.0066
  4.86682V6.86682M10.0066 11.8668V17.8668M14.0066 11.8668V17.8668"
    stroke="currentColor"
    stroke-width="2"
    stroke-linecap="round"
    stroke-linejoin="round"
  />
</svg>
