<svg
    width="20"
    height="20"
    viewBox="0 0 20 20"
    fill="none"
    xmlns="http://www.w3.org/2000/svg"
>
    <path
        d="M11.5312 9.99999C11.5312 10.8457 10.8457 11.5312 9.99999 11.5312C9.15427 11.5312 8.46875 10.8457 8.46875 9.99999C8.46875 9.15427 9.15427 8.46875 9.99999 8.46875C10.8457 8.46875 11.5312 9.15427 11.5312 9.99999Z"
        fill="currentcolor"
    />
    <path
        d="M13.581 7.29077C13.5074 7.09133 13.39 6.91077 13.2374 6.76257C13.0892 6.61001 12.9088 6.49257 12.7092 6.41897C12.5474 6.35609 12.3042 6.28125 11.8563 6.26089C11.3718 6.23877 11.2266 6.23401 10 6.23401C8.77333 6.23401 8.62805 6.23865 8.14369 6.26077C7.69581 6.28125 7.45253 6.35609 7.29077 6.41897C7.09121 6.49257 6.91065 6.61001 6.76257 6.76257C6.61001 6.91077 6.49257 7.09121 6.41885 7.29077C6.35597 7.45265 6.28113 7.69593 6.26077 8.14381C6.23865 8.62817 6.23389 8.77345 6.23389 10.0001C6.23389 11.2267 6.23865 11.372 6.26077 11.8564C6.28113 12.3043 6.35597 12.5475 6.41885 12.7094C6.49257 12.9089 6.60989 13.0894 6.76245 13.2376C6.91065 13.3901 7.09109 13.5076 7.29065 13.5812C7.45253 13.6442 7.69581 13.719 8.14369 13.7394C8.62805 13.7615 8.77321 13.7661 9.99989 13.7661C11.2267 13.7661 11.372 13.7615 11.8562 13.7394C12.3041 13.719 12.5474 13.6442 12.7092 13.5812C13.1099 13.4266 13.4265 13.11 13.581 12.7094C13.6439 12.5475 13.7188 12.3043 13.7392 11.8564C13.7614 11.372 13.766 11.2267 13.766 10.0001C13.766 8.77345 13.7614 8.62817 13.7392 8.14381C13.7189 7.69593 13.644 7.45265 13.581 7.29077ZM10 12.3589C8.69717 12.3589 7.64101 11.3028 7.64101 10C7.64101 8.69717 8.69717 7.64113 10 7.64113C11.3027 7.64113 12.3589 8.69717 12.3589 10C12.3589 11.3028 11.3027 12.3589 10 12.3589ZM12.4522 8.09913C12.1477 8.09913 11.9009 7.85229 11.9009 7.54785C11.9009 7.24341 12.1477 6.99661 12.4522 6.99661C12.7566 6.99661 13.0034 7.24341 13.0034 7.54785C13.0033 7.85229 12.7566 8.09913 12.4522 8.09913Z"
        fill="currentcolor"
    />
    <path
        d="M10 2C5.5824 2 2 5.5824 2 10C2 14.4176 5.5824 18 10 18C14.4176 18 18 14.4176 18 10C18 5.5824 14.4176 2 10 2ZM14.566 11.8939C14.5438 12.3829 14.4661 12.7168 14.3525 13.009C14.1139 13.6261 13.6261 14.1139 13.009 14.3525C12.7169 14.4661 12.3829 14.5437 11.894 14.566C11.4042 14.5884 11.2477 14.5938 10.0001 14.5938C8.75244 14.5938 8.59608 14.5884 8.10608 14.566C7.6172 14.5437 7.2832 14.4661 6.99108 14.3525C6.68444 14.2372 6.40688 14.0564 6.17736 13.8226C5.94372 13.5933 5.76294 13.3156 5.64758 13.009C5.53406 12.7169 5.4563 12.3829 5.43408 11.894C5.4115 11.404 5.40625 11.2476 5.40625 10C5.40625 8.75244 5.4115 8.59596 5.43396 8.10608C5.45618 7.61708 5.53381 7.2832 5.64734 6.99096C5.7627 6.68444 5.9436 6.40672 6.17736 6.17736C6.40672 5.9436 6.68444 5.76282 6.99096 5.64746C7.2832 5.53394 7.61708 5.4563 8.10608 5.43396C8.59596 5.41162 8.75244 5.40625 10 5.40625C11.2476 5.40625 11.404 5.41162 11.8939 5.43408C12.3829 5.4563 12.7168 5.53394 13.009 5.64734C13.3156 5.7627 13.5933 5.9436 13.8228 6.17736C14.0564 6.40688 14.2373 6.68444 14.3525 6.99096C14.4662 7.2832 14.5438 7.61708 14.5662 8.10608C14.5885 8.59596 14.5938 8.75244 14.5938 10C14.5938 11.2476 14.5885 11.404 14.566 11.8939Z"
        fill="currentcolor"
    />
</svg>