<svg
    width="20"
    height="20"
    viewBox="0 0 20 20"
    fill="none"
    xmlns="http://www.w3.org/2000/svg"
>
    <path
        d="M18 10C18 5.58124 14.4188 2 10 2C5.58124 2 2 5.58124 2 10C2 14.4188 5.58124 18 10 18C10.0469 18 10.0937 18 10.1406 17.9969V11.7719H8.42187V9.76874H10.1406V8.29375C10.1406 6.58439 11.1844 5.65313 12.7094 5.65313C13.4406 5.65313 14.0687 5.70625 14.25 5.73126V7.51876H13.2C12.3719 7.51876 12.2094 7.9125 12.2094 8.49064V9.76563H14.1937L13.9344 11.7687H12.2094V17.6906C15.5531 16.7313 18 13.6531 18 10Z"
        fill="currentColor"
    />
</svg>