<svg width="24" height="24" viewBox="0 0 24 24" fill="none" xmlns="http://www.w3.org/2000/svg">
    <g id="icon-truck">
        <path id="truck" d="M6.06293 7C5.89252 7.00073 5.75451 7.14668 5.75383 7.32707C5.75451 7.50731 5.89252 7.65325 6.06293 7.65399H14.6196V15.1318H10.7158C10.6076 14.3498 9.97372 13.7412 9.21056 13.7412C8.44754 13.7412 7.81368 14.3496 7.70546 15.1317L6.37439 15.1318V13.7093C6.37467 13.6218 6.34197 13.5377 6.2835 13.4758C6.22503 13.414 6.1455 13.3794 6.06279 13.3797C5.98048 13.38 5.90165 13.415 5.84373 13.4767C5.78568 13.5385 5.75326 13.6222 5.75367 13.7093V15.4614C5.75437 15.6416 5.89237 15.7876 6.06279 15.7883H7.74119C7.91494 16.4815 8.50766 17 9.21055 17C9.91346 17 10.5061 16.4817 10.6799 15.7883H16.3415C16.5153 16.4815 17.108 17 17.811 17C18.5138 17 19.1053 16.4817 19.2785 15.7883H20.6909C20.8612 15.7876 20.9993 15.6416 21 15.4614V12.4128C21 12.3708 20.9924 12.3289 20.9775 12.2897L19.8155 9.24388C19.7685 9.1202 19.6554 9.03903 19.5294 9.03815H15.2407V7.32722C15.24 7.14669 15.1017 7.00059 14.931 7.00015L6.06293 7ZM4.71123 9.07653C4.62893 9.07683 4.55009 9.11185 4.49204 9.17354C4.43413 9.23537 4.4017 9.31905 4.40211 9.40609C4.40267 9.58632 4.5408 9.73227 4.71122 9.733H9.39391C9.47621 9.73329 9.55518 9.69916 9.61365 9.63776C9.67212 9.57651 9.7051 9.49312 9.70537 9.40609C9.70578 9.3186 9.67308 9.23449 9.61448 9.17265C9.55601 9.11081 9.47662 9.07623 9.3939 9.07652L4.71123 9.07653ZM15.2411 9.69464H19.3187L20.2302 12.0859L15.2409 12.0858L15.2411 9.69464ZM3.31161 11.1696C3.22917 11.1693 3.15005 11.2036 3.09158 11.2652C3.03311 11.3266 3.00014 11.4101 3 11.4973C3.00042 11.5843 3.03339 11.6677 3.09172 11.729C3.15019 11.7904 3.2293 11.8247 3.31161 11.8242H9.39391C9.47621 11.8247 9.55518 11.7904 9.61365 11.729C9.67212 11.6677 9.7051 11.5843 9.70537 11.4973C9.70523 11.4101 9.67239 11.3266 9.61393 11.2652C9.55546 11.2036 9.47635 11.1693 9.39391 11.1696H3.31161ZM15.2411 12.7423H20.3795V15.1317H19.3139C19.2061 14.3496 18.5743 13.7412 17.8112 13.7412C17.0482 13.7412 16.4149 14.3496 16.3066 15.1317H15.2411V12.7423ZM9.18783 14.3975C9.19559 14.3974 9.20307 14.3975 9.21083 14.3975C9.70878 14.3975 10.111 14.8251 10.111 15.3688C10.111 15.9124 9.70878 16.3432 9.21083 16.3432C8.71287 16.3432 8.31065 15.9124 8.31065 15.3688C8.31065 14.8336 8.7007 14.4106 9.18783 14.3975ZM17.7881 14.3975C17.7958 14.3974 17.8034 14.3975 17.8111 14.3975C18.3091 14.3975 18.7119 14.8251 18.7119 15.3688C18.7119 15.9124 18.3091 16.3432 17.8111 16.3432C17.3132 16.3432 16.9109 15.9124 16.9109 15.3688C16.9109 14.8336 17.301 14.4106 17.7881 14.3975Z" fill="#1F1F1F"/>
    </g>
</svg>