<svg
    width="24"
    height="24"
    viewBox="0 0 24 24"
    fill="none"
    xmlns="http://www.w3.org/2000/svg"
>
    <path
        d="M12 2C6.47981 2 2 6.48015 2 12C2 17.5198 6.47981 22 12 22C17.5202 22 22 17.5198 22 12C22 6.48015 17.5202 2 12 2ZM12.9599 17H11.0401V11.4398H12.9599V17ZM12 9.58404C11.1841 9.58404 10.5199 8.92006 10.5199 8.10397C10.5199 7.28788 11.1841 6.6239 12 6.6239C12.8159 6.6239 13.4801 7.28788 13.4801 8.10397C13.4801 8.92006 12.8159 9.58404 12 9.58404Z"
        fill="currentcolor"
    />
</svg>