<svg
    width="20"
    height="20"
    viewBox="0 0 20 20"
    fill="none"
    xmlns="http://www.w3.org/2000/svg"
>
    <path
        d="M9.00349 11.4988L11.6058 10L9.00349 8.50124V11.4988Z"
        fill="currentColor"
    />
    <path
        d="M10 2C5.5824 2 2 5.5824 2 10C2 14.4176 5.5824 18 10 18C14.4176 18 18 14.4176 18 10C18 5.5824 14.4176 2 10 2ZM14.9988 10.0082C14.9988 10.0082 14.9988 11.6306 14.793 12.413C14.6776 12.8412 14.34 13.1788 13.9118 13.2941C13.1294 13.5 10 13.5 10 13.5C10 13.5 6.87877 13.5 6.08826 13.2859C5.66003 13.1706 5.32239 12.8329 5.20703 12.4047C5.0011 11.6306 5.0011 10 5.0011 10C5.0011 10 5.0011 8.37768 5.20703 7.59532C5.32226 7.16712 5.66821 6.82116 6.08826 6.70592C6.8706 6.5 10 6.5 10 6.5C10 6.5 13.1294 6.5 13.9118 6.71412C14.34 6.82936 14.6776 7.16712 14.793 7.59532C15.0071 8.37768 14.9988 10.0082 14.9988 10.0082Z"
        fill="currentColor"
    />
</svg>