<svg
    width="20"
    height="20"
    viewBox="0 0 20 20"
    fill="none"
    xmlns="http://www.w3.org/2000/svg"
>
    <path
        d="M10.0096 2C11.1183 2 12.1569 2.21027 13.1254 2.63082C14.094 3.05137 14.9383 3.62166 15.6583 4.3417C16.3783 5.06173 16.9486 5.90601 17.3692 6.87455C17.7897 7.84309 18 8.88172 18 9.99044C18 11.0992 17.7897 12.1378 17.3692 13.1063C16.9486 14.0749 16.3783 14.9223 15.6583 15.6487C14.9383 16.3751 14.094 16.9486 13.1254 17.3692C12.1569 17.7897 11.1183 18 10.0096 18C8.90084 18 7.86221 17.7897 6.89367 17.3692C5.92513 16.9486 5.07766 16.3751 4.35125 15.6487C3.62485 14.9223 3.05137 14.0749 2.63082 13.1063C2.21027 12.1378 2 11.0992 2 9.99044C2 8.88172 2.21027 7.84309 2.63082 6.87455C3.05137 5.90601 3.62485 5.06173 4.35125 4.3417C5.07766 3.62166 5.92513 3.05137 6.89367 2.63082C7.86221 2.21027 8.90084 2 10.0096 2ZM12.5329 11.7109C12.7622 11.5197 12.9566 11.2903 13.1159 11.0227C13.2752 10.7551 13.4058 10.462 13.5078 10.1434C13.6097 9.82477 13.6798 9.50299 13.718 9.17802C13.7563 8.85305 13.7563 8.53763 13.718 8.23178C13.6798 7.90044 13.5779 7.57865 13.4122 7.26643C13.2465 6.9542 13.0299 6.67702 12.7622 6.43489C12.4946 6.19275 12.1888 5.98885 11.8447 5.82318C11.5006 5.65751 11.1374 5.55556 10.7551 5.51732C10.1689 5.4536 9.60494 5.49184 9.06332 5.63202C8.5217 5.7722 8.04381 5.99203 7.62963 6.29152C7.21545 6.591 6.88092 6.96376 6.62605 7.4098C6.37117 7.85583 6.24373 8.35922 6.24373 8.91995C6.24373 9.4552 6.33931 9.88849 6.53047 10.2198C6.72162 10.5512 7.05934 10.8061 7.54361 10.9845C7.70928 10.8315 7.7953 10.6882 7.80167 10.5544C7.80804 10.4205 7.77937 10.2867 7.71565 10.1529C7.65193 10.0191 7.57547 9.87893 7.48626 9.73238C7.39705 9.58582 7.34608 9.42334 7.33333 9.24492C7.28236 8.7734 7.37475 8.32417 7.61051 7.89725C7.84628 7.47033 8.16169 7.12306 8.55675 6.85544C8.95181 6.58781 9.40422 6.42851 9.91398 6.37754C10.4237 6.32656 10.9335 6.44763 11.4432 6.74074C11.6854 6.88092 11.8765 7.08164 12.0167 7.34289C12.1569 7.60414 12.2557 7.89725 12.313 8.22222C12.3704 8.54719 12.3831 8.88491 12.3513 9.23536C12.3194 9.58582 12.2429 9.90761 12.1219 10.2007C12.0008 10.4938 11.8383 10.7487 11.6344 10.9654C11.4305 11.182 11.1884 11.3158 10.908 11.3668C10.7296 11.405 10.548 11.4018 10.3632 11.3572C10.1784 11.3126 10.0478 11.2521 9.97133 11.1756C9.76742 10.9845 9.68459 10.7678 9.72282 10.5257C9.76105 10.2836 9.83114 10.0223 9.93309 9.74194C10.035 9.46157 10.1274 9.17483 10.2103 8.88172C10.2931 8.58861 10.2772 8.30824 10.1625 8.04062C10.0605 7.81123 9.91716 7.67423 9.73238 7.62963C9.54759 7.58503 9.36599 7.60733 9.18757 7.69654C9.00916 7.78574 8.84667 7.91955 8.70012 8.09797C8.55356 8.27638 8.46117 8.46754 8.42294 8.67145C8.39745 8.88809 8.41657 9.10155 8.48029 9.31183C8.54401 9.5221 8.57587 9.72919 8.57587 9.93309C8.57587 10.1625 8.54401 10.4078 8.48029 10.6691C8.41657 10.9303 8.34329 11.1979 8.26045 11.4719C8.17762 11.7459 8.09478 12.0135 8.01195 12.2748C7.92911 12.536 7.86858 12.7814 7.83035 13.0108C7.80486 13.1892 7.78256 13.4313 7.76344 13.7372C7.74432 14.043 7.76025 14.2915 7.81123 14.4827L7.79211 14.5018H8.42294C8.63959 14.1322 8.82437 13.6989 8.9773 13.2019C9.13023 12.7049 9.26404 12.227 9.37873 11.7682C9.44245 11.7045 9.49024 11.7172 9.5221 11.8065C9.55396 11.8957 9.60175 11.9594 9.66547 11.9976C9.85663 12.1505 10.086 12.2429 10.3536 12.2748C10.6213 12.3067 10.8889 12.3035 11.1565 12.2652C11.4241 12.227 11.6822 12.1569 11.9307 12.055C12.1792 11.953 12.3799 11.8383 12.5329 11.7109Z"
        fill="currentColor"
    />
</svg>