<svg
  width="19"
  height="17"
  viewBox="0 0 19 17"
  fill="none"
  xmlns="http://www.w3.org/2000/svg"
>
  <path
    d="M0 1.98611V15.614C0 16.2663 0.533729 16.8 1.18606 16.8H9.32839C15.4841 16.8 18.1527 13.3545 18.1527 8.78226C18.1527 4.2337 15.4841 0.800049 9.32839 0.800049H1.18606C0.533729 0.800049 0 1.33378 0 1.98611Z"
    fill="white"
  ></path>
  <path
    d="M5.44995 4.14476V14.2144H9.83246C13.8117 14.2144 15.5374 11.9669 15.5374 8.7882C15.5374 5.74595 13.8117 3.38568 9.83246 3.38568H6.20903C5.78798 3.38568 5.44995 3.72964 5.44995 4.14476Z"
    fill="#CC0066"
  ></path>
  <path
    d="M9.32831 15.7148H2.24751C1.61889 15.7148 1.10889 15.2048 1.10889 14.5762V3.02986C1.10889 2.40124 1.61889 1.89124 2.24751 1.89124H9.32831C16.0474 1.89124 17.0496 6.21444 17.0496 8.7882C17.0496 13.2537 14.3038 15.7148 9.32831 15.7148ZM2.24751 2.27078C1.82646 2.27078 1.48843 2.6088 1.48843 3.02986V14.5762C1.48843 14.9972 1.82646 15.3353 2.24751 15.3353H9.32831C14.0607 15.3353 16.67 13.0106 16.67 8.7882C16.67 3.11881 12.0681 2.27078 9.32831 2.27078H2.24751Z"
    fill="black"
  ></path>
  <path
    d="M6.99201 7.43013C7.1462 7.43013 7.28853 7.45385 7.42492 7.50129C7.56132 7.54873 7.674 7.62583 7.77481 7.72071C7.8697 7.82153 7.94679 7.94606 8.00609 8.08839C8.05947 8.23665 8.08912 8.40863 8.08912 8.61026C8.08912 8.78817 8.0654 8.94829 8.02389 9.09654C7.97644 9.2448 7.91121 9.37527 7.82225 9.48201C7.7333 9.58876 7.62062 9.67179 7.48423 9.73702C7.34783 9.79632 7.18771 9.8319 7.00387 9.8319H5.96606V7.42419H6.99201V7.43013ZM6.95643 9.39306C7.03352 9.39306 7.10469 9.3812 7.18178 9.35748C7.25294 9.33376 7.31818 9.29224 7.37155 9.23294C7.42492 9.17364 7.47237 9.10247 7.50795 9.00759C7.54353 8.9127 7.56132 8.80596 7.56132 8.66956C7.56132 8.55096 7.54946 8.43828 7.52574 8.34339C7.50202 8.24851 7.46051 8.15955 7.40713 8.09432C7.35376 8.02909 7.2826 7.96978 7.19364 7.9342C7.10469 7.89862 6.99794 7.88083 6.86747 7.88083H6.48793V9.39899H6.95643V9.39306Z"
    fill="white"
  ></path>
  <path
    d="M10.23 7.43013V7.8749H8.9609V8.39084H10.1292V8.80003H8.9609V9.38713H10.2596V9.8319H8.43311V7.42419H10.23V7.43013Z"
    fill="white"
  ></path>
  <path
    d="M12.0446 7.43018L12.946 9.83788H12.3944L12.2106 9.30416H11.3092L11.1194 9.83788H10.5857L11.493 7.43018H12.0446ZM12.0742 8.90682L11.7718 8.02321H11.7658L11.4515 8.90682H12.0742Z"
    fill="white"
  ></path>
  <path
    d="M13.8059 7.43018V9.39311H14.9801V9.83788H13.2781V7.43018H13.8059Z"
    fill="white"
  ></path>
  <path
    d="M3.46908 9.74296C4.08154 9.74296 4.57805 9.24646 4.57805 8.63399C4.57805 8.02153 4.08154 7.52502 3.46908 7.52502C2.85661 7.52502 2.36011 8.02153 2.36011 8.63399C2.36011 9.24646 2.85661 9.74296 3.46908 9.74296Z"
    fill="black"
  ></path>
  <path
    d="M4.30523 14.2144C3.37417 14.2144 2.62695 13.4613 2.62695 12.5361V11.2255C2.62695 10.763 3.00056 10.3834 3.46906 10.3834C3.93162 10.3834 4.31116 10.757 4.31116 11.2255V14.2144H4.30523Z"
    fill="black"
  ></path>
</svg>
