<svg
    width="20"
    height="20"
    viewBox="0 0 20 20"
    fill="none"
    xmlns="http://www.w3.org/2000/svg"
>
    <path
        fill-rule="evenodd"
        clip-rule="evenodd"
        d="M10 18C14.4183 18 18 14.4183 18 10C18 5.58172 14.4183 2 10 2C5.58172 2 2 5.58172 2 10C2 14.4183 5.58172 18 10 18ZM12.9439 5.9088C13.3329 6.3669 13.8517 6.68307 14.4246 6.81123C14.6138 6.85296 14.8066 6.87387 15 6.87362V8.92716C14.0182 8.92898 13.0606 8.6088 12.2619 8.01167V12.2027C12.2618 12.9575 12.0467 13.6951 11.644 14.3215C11.2413 14.9478 10.6692 15.4344 10.0009 15.7192C9.33248 16.0041 8.59811 16.0741 7.89148 15.9205C7.18485 15.7669 6.53803 15.3966 6.03357 14.8568C5.50459 14.2905 5.15809 13.5655 5.04255 12.7831C4.927 12.0007 5.04819 11.2002 5.38915 10.4934C5.73012 9.78657 6.27381 9.2089 6.94418 8.84117C7.61455 8.47343 8.37807 8.33401 9.12793 8.44242V10.5421C8.79166 10.4303 8.43005 10.4333 8.09553 10.5508C7.76102 10.6683 7.47099 10.8942 7.26751 11.1957C7.06403 11.4972 6.95767 11.8587 6.96387 12.2276C6.97006 12.5966 7.08848 12.9539 7.30195 13.2478C7.51216 13.5368 7.80368 13.7497 8.13554 13.8565C8.46741 13.9633 8.82294 13.9587 9.15217 13.8433C9.4814 13.728 9.76779 13.5076 9.97109 13.2132C10.1744 12.9188 10.2844 12.5652 10.2856 12.2021V4H12.2619V4.26457C12.3159 4.87463 12.5549 5.4507 12.9439 5.9088Z"
        fill="currentColor"
    />
</svg>